<?xml version="1.0" encoding="UTF-8"?>
<!DOCTYPE svg PUBLIC "-//W3C//DTD SVG 1.1//EN" "http://www.w3.org/Graphics/SVG/1.1/DTD/svg11.dtd">
<svg version="1.1" xmlns="http://www.w3.org/2000/svg" xmlns:xlink="http://www.w3.org/1999/xlink" x="0" y="0" width="534" height="142" viewBox="0, 0, 534, 142">
  <g id="Layer_1">
    <path d="M102.444,28.317 Q102.444,29.685 99.852,29.685 Q98.7,29.685 98.412,28.677 Q95.316,18.525 89.556,14.313 Q83.796,10.101 72.492,10.101 L65.724,10.101 Q62.196,10.101 60.9,11.253 Q59.604,12.405 59.604,15.573 L59.604,88.653 Q59.604,93.621 60.864,95.673 Q62.124,97.725 65.328,98.913 Q68.532,100.101 74.508,100.821 Q75.66,100.965 75.66,102.765 Q75.66,104.781 74.508,104.781 Q69.684,104.781 62.988,104.349 Q56.652,103.917 52.404,103.917 Q48.012,103.917 41.604,104.349 Q34.908,104.781 30.084,104.781 Q28.932,104.781 28.932,102.765 Q28.932,100.965 30.084,100.821 Q38.796,99.813 41.928,97.581 Q45.06,95.349 45.06,88.653 L45.06,15.573 Q45.06,12.405 43.764,11.253 Q42.468,10.101 38.868,10.101 L33.252,10.101 Q23.1,10.101 14.82,15.249 Q6.54,20.397 4.02,28.605 Q3.66,29.685 2.436,29.685 Q-0.012,29.685 -0.012,28.101 Q4.02,17.229 7.62,3.477 Q17.412,5.493 52.404,5.493 Q88.332,5.493 98.124,3.477 Q99.132,12.837 102.444,28.317 z" fill="#2E2357"/>
    <path d="M166.452,107.309 Q160.62,119.765 156.948,131.069 Q129.804,130.205 118.284,130.205 Q106.908,130.205 79.692,131.069 Q78.54,131.069 78.54,129.053 Q78.54,127.253 79.692,127.109 Q85.668,126.389 88.836,125.201 Q92.004,124.013 93.264,121.997 Q94.524,119.981 94.524,114.941 L94.524,47.189 Q94.524,42.221 93.336,40.169 Q92.148,38.117 88.98,36.893 Q85.812,35.669 79.692,34.949 Q78.54,34.949 78.54,32.933 Q78.54,30.917 79.692,30.917 Q97.836,31.781 116.844,31.781 Q135.996,31.781 154.068,30.917 Q155.724,42.077 158.892,52.949 Q158.892,54.389 156.372,54.389 Q155.148,54.389 154.86,53.381 Q149.532,36.389 132.108,36.389 L117.564,36.389 Q109.212,36.389 109.212,45.029 L109.212,77.069 L127.356,77.069 Q134.556,77.069 137.112,73.757 Q139.668,70.445 140.676,62.021 Q140.676,60.869 142.692,60.869 Q144.708,60.869 144.708,62.021 Q144.708,65.621 144.276,71.093 Q143.844,76.349 143.844,79.661 Q143.844,83.045 144.276,88.301 Q144.708,93.917 144.708,97.517 Q144.708,98.669 142.692,98.669 Q140.676,98.669 140.676,97.517 Q139.596,88.733 136.896,85.205 Q134.196,81.677 127.356,81.677 L109.212,81.677 L109.212,117.101 Q109.212,125.597 117.564,125.597 L133.26,125.597 Q141.828,125.597 150.252,120.017 Q158.676,114.437 162.636,106.085 Q162.924,105.437 163.86,105.437 Q164.868,105.437 165.66,105.977 Q166.452,106.517 166.452,107.309 z" fill="#2C2255"/>
    <path d="M257.172,102.417 Q257.172,104.433 256.02,104.433 Q252.636,104.433 246.588,104.001 Q240.108,103.569 236.148,103.569 Q231.9,103.569 224.916,104.001 Q217.572,104.433 212.676,104.433 Q211.596,104.433 211.596,102.417 Q211.596,100.617 212.748,100.473 Q222.756,99.105 222.756,95.937 Q222.756,93.489 219.156,88.305 L200.364,61.233 L181.644,88.305 Q179.34,91.401 179.34,94.065 Q179.34,96.729 182.004,98.133 Q184.668,99.537 191.148,100.401 Q192.012,100.545 192.012,102.417 Q192.012,104.433 190.86,104.433 Q185.892,104.433 179.484,104.001 Q173.868,103.569 170.124,103.569 Q166.884,103.569 162.204,104.001 Q156.876,104.433 152.556,104.433 Q151.404,104.433 151.404,102.417 Q151.404,100.617 152.988,100.473 Q160.116,99.753 164.148,97.413 Q168.18,95.073 173.508,88.233 L197.628,57.201 L172.14,20.553 Q167.1,13.137 163.212,11.121 Q159.324,9.105 151.692,8.313 Q150.54,8.313 150.54,6.297 Q150.54,4.281 151.692,4.281 Q155.076,4.281 161.268,4.713 Q167.964,5.145 171.852,5.145 Q176.244,5.145 183.012,4.713 Q190.212,4.281 195.036,4.281 Q196.188,4.281 196.188,6.297 Q196.188,8.313 195.036,8.313 Q189.132,9.105 187.044,10.113 Q184.956,11.121 184.956,12.921 Q184.956,15.369 188.556,20.553 L206.268,45.969 L223.908,20.553 Q226.5,16.521 226.5,14.649 Q226.5,12.129 223.656,10.653 Q220.812,9.177 214.26,8.313 Q213.396,8.313 213.396,6.297 Q213.396,4.281 214.548,4.281 Q219.372,4.281 225.132,4.713 Q230.604,5.145 234.996,5.145 Q238.38,5.145 242.916,4.785 Q248.532,4.281 253.572,4.281 Q254.724,4.281 254.724,6.297 Q254.724,7.089 254.22,7.701 Q253.716,8.313 253.14,8.313 Q245.364,9.177 241.224,11.589 Q237.084,14.001 231.972,20.553 L209.004,50.001 L235.428,88.305 Q240.756,95.865 244.356,97.701 Q247.956,99.537 256.02,100.473 Q257.172,100.617 257.172,102.417 z" fill="#2C2255"/>
    <path d="M297.132,102.849 Q297.132,104.865 295.98,104.865 Q293.028,104.865 288.42,104.505 Q283.236,104.145 279.708,104.145 Q276.252,104.145 271.14,104.505 Q266.532,104.865 263.58,104.865 Q262.428,104.865 262.428,102.849 Q262.428,101.049 263.58,100.905 Q269.7,100.185 271.536,97.989 Q273.372,95.793 273.372,88.737 L273.372,21.849 Q273.372,16.017 271.932,14.217 Q270.492,12.417 265.308,11.841 Q264.156,11.697 264.156,10.041 Q264.156,8.313 265.308,8.313 Q272.868,6.369 277.692,4.173 Q282.516,1.977 283.74,0.465 Q284.46,-0.327 285.324,-0.327 Q287.34,-0.327 287.34,0.825 Q286.188,16.953 286.188,25.881 L286.188,88.737 Q286.188,95.793 287.988,97.989 Q289.788,100.185 295.98,100.905 Q297.132,101.049 297.132,102.849 z" fill="#2C2255"/>
    <path d="M325.932,15.801 Q325.932,18.825 323.736,21.057 Q321.54,23.289 318.444,23.289 Q315.348,23.289 313.152,21.057 Q310.956,18.825 310.956,15.801 Q310.956,12.633 313.116,10.473 Q315.276,8.313 318.444,8.313 Q321.54,8.313 323.736,10.473 Q325.932,12.633 325.932,15.801 z" fill="#F8941F"/>
    <path d="M335.796,102.849 Q335.796,101.049 334.644,100.905 Q328.38,100.113 326.616,97.953 Q324.852,95.793 324.852,88.737 L324.852,66.129 Q324.852,57.201 326.004,41.073 Q326.004,39.921 323.988,39.921 Q323.124,39.921 322.404,40.785 Q321.18,42.225 316.356,44.421 Q311.532,46.617 303.972,48.561 Q302.82,48.561 302.82,50.289 Q302.82,52.161 303.972,52.161 Q308.94,52.737 310.416,54.537 Q311.892,56.337 311.892,62.097 L311.892,88.737 Q311.892,95.793 310.128,97.953 Q308.364,100.113 302.244,100.905 Q301.092,101.049 301.092,102.849 Q301.092,104.865 302.244,104.865 Q305.196,104.865 309.732,104.433 Q314.772,104.001 318.372,104.001 Q321.9,104.001 327.084,104.433 Q331.692,104.865 334.644,104.865 Q335.796,104.865 335.796,102.849 z" fill="#2C2255"/>
    <path d="M411.108,74.193 Q411.108,88.377 401.532,97.701 Q391.956,107.025 377.052,107.025 Q368.484,107.025 362.364,103.713 L362.364,125.889 Q362.364,132.873 364.164,135.105 Q365.964,137.337 372.156,138.129 Q373.308,138.129 373.308,140.145 Q373.308,142.161 372.156,142.161 Q369.204,142.161 364.524,141.729 Q359.484,141.297 356.028,141.297 Q352.428,141.297 347.316,141.729 Q342.708,142.161 339.756,142.161 Q338.604,142.161 338.604,140.145 Q338.604,138.129 339.756,138.129 Q345.876,137.337 347.712,135.105 Q349.548,132.873 349.548,125.889 L349.548,62.097 Q349.548,56.337 348.072,54.537 Q346.596,52.737 341.484,52.161 Q340.332,52.161 340.332,50.289 Q340.332,48.561 341.484,48.561 Q348.468,46.833 353.184,44.601 Q357.9,42.369 359.412,40.785 Q360.204,39.921 360.924,39.921 Q362.94,39.921 362.94,41.073 L362.364,50.145 Q366.324,46.041 371.508,43.269 Q376.692,40.497 380.364,40.497 Q394.548,40.497 402.828,49.749 Q411.108,59.001 411.108,74.193 z M396.636,74.049 Q396.636,62.025 391.416,55.293 Q386.196,48.561 376.764,48.561 Q372.804,48.561 369.6,50.217 Q366.396,51.873 362.364,56.337 L362.364,91.617 Q362.364,96.225 366.468,99.321 Q370.572,102.417 376.476,102.417 Q386.268,102.417 391.452,95.037 Q396.636,87.657 396.636,74.049 z" fill="#2C2255"/>
    <path d="M467.34,86.205 Q467.34,94.989 460.428,100.965 Q453.516,106.941 443.724,106.941 Q440.268,106.941 433.068,105.429 Q427.668,104.349 425.724,104.349 Q425.148,99.309 423.06,89.013 Q423.06,87.933 425.148,87.933 Q426.876,87.933 427.236,89.085 Q428.892,94.413 433.788,98.373 Q438.684,102.333 443.868,102.333 Q449.268,102.333 452.256,99.381 Q455.244,96.429 455.244,91.101 Q455.244,87.717 452.76,85.125 Q450.276,82.533 441.996,78.717 Q431.124,73.749 427.632,69.357 Q424.14,64.965 424.14,58.845 Q424.14,51.285 430.692,45.849 Q437.244,40.413 446.172,40.413 Q449.916,40.413 456.684,41.709 Q460.428,42.429 461.58,42.429 Q461.796,50.925 462.516,56.901 Q462.516,57.981 460.428,57.981 Q458.628,57.981 458.412,56.829 Q457.62,51.573 454.452,48.297 Q451.284,45.021 446.892,45.021 Q435.66,45.021 435.66,54.813 Q435.66,58.125 438.324,60.933 Q440.988,63.741 449.916,68.205 Q460.572,73.533 463.956,77.421 Q467.34,81.309 467.34,86.205 z" fill="#2C2255"/>
    <path d="M534.012,63.885 Q534.012,65.901 531.42,65.901 L491.964,65.901 Q491.532,69.789 491.532,73.965 Q491.532,85.557 497.04,91.785 Q502.548,98.013 512.7,98.013 Q517.812,98.013 522.996,95.277 Q528.18,92.541 531.348,88.293 L531.708,88.149 Q532.356,88.149 532.968,88.941 Q533.58,89.733 533.58,90.813 Q533.58,92.325 528.972,97.113 Q524.364,101.901 518.964,104.421 Q513.564,106.941 507.66,106.941 Q494.7,106.941 485.844,97.437 Q476.988,87.933 476.988,74.109 Q476.988,59.997 485.664,50.205 Q494.34,40.413 507.66,40.413 Q518.82,40.413 526.416,47.721 Q534.012,55.029 534.012,63.885 z M520.908,57.549 Q520.908,52.149 517.2,48.585 Q513.492,45.021 507.66,45.021 Q502.116,45.021 498.048,49.665 Q493.98,54.309 492.54,61.869 L512.556,61.293 Q517.092,61.221 519,60.429 Q520.908,59.637 520.908,57.549 z" fill="#2C2255"/>
    <g>
      <g>
        <path d="M183.569,134.406 Q180.491,135.344 178.3,135.344 Q174.57,135.344 172.215,132.852 Q169.86,130.359 169.86,126.391 Q169.86,122.531 171.935,120.062 Q174.01,117.594 177.243,117.594 Q180.305,117.594 181.975,119.781 Q183.646,121.969 183.646,126 L183.631,126.953 L172.984,126.953 Q173.653,133 178.875,133 Q180.786,133 183.569,131.969 z M173.124,124.641 L180.569,124.641 Q180.569,119.906 177.056,119.906 Q173.528,119.906 173.124,124.641 z" fill="#2C2255"/>
        <path d="M183.569,134.406 Q180.491,135.344 178.3,135.344 Q174.57,135.344 172.215,132.852 Q169.86,130.359 169.86,126.391 Q169.86,122.531 171.935,120.062 Q174.01,117.594 177.243,117.594 Q180.305,117.594 181.975,119.781 Q183.646,121.969 183.646,126 L183.631,126.953 L172.984,126.953 Q173.653,133 178.875,133 Q180.786,133 183.569,131.969 z M173.124,124.641 L180.569,124.641 Q180.569,119.906 177.056,119.906 Q173.528,119.906 173.124,124.641 z" fill-opacity="0" stroke="#2C2255" stroke-width="1"/>
      </g>
      <g>
        <path d="M195.52,135.344 Q192.101,135.344 189.848,132.797 Q187.594,130.25 187.594,126.375 Q187.594,122.234 189.824,119.922 Q192.055,117.609 196.049,117.609 Q198.023,117.609 200.463,118.156 L200.463,120.734 Q197.867,119.969 196.235,119.969 Q193.889,119.969 192.466,121.742 Q191.044,123.516 191.044,126.469 Q191.044,129.328 192.505,131.094 Q193.966,132.859 196.329,132.859 Q198.427,132.859 200.649,131.781 L200.649,134.438 Q197.681,135.344 195.52,135.344 z" fill="#2C2255"/>
        <path d="M195.52,135.344 Q192.101,135.344 189.848,132.797 Q187.594,130.25 187.594,126.375 Q187.594,122.234 189.824,119.922 Q192.055,117.609 196.049,117.609 Q198.023,117.609 200.463,118.156 L200.463,120.734 Q197.867,119.969 196.235,119.969 Q193.889,119.969 192.466,121.742 Q191.044,123.516 191.044,126.469 Q191.044,129.328 192.505,131.094 Q193.966,132.859 196.329,132.859 Q198.427,132.859 200.649,131.781 L200.649,134.438 Q197.681,135.344 195.52,135.344 z" fill-opacity="0" stroke="#2C2255" stroke-width="1"/>
      </g>
      <g>
        <path d="M205.234,134.953 L205.234,110.281 L208.296,110.281 L208.296,134.953 z" fill="#2C2255"/>
        <path d="M205.234,134.953 L205.234,110.281 L208.296,110.281 L208.296,134.953 z" fill-opacity="0" stroke="#2C2255" stroke-width="1"/>
      </g>
      <g>
        <path d="M214.435,134.953 L214.435,117.984 L217.497,117.984 L217.497,134.953 z M214.435,114.906 L214.435,111.828 L217.497,111.828 L217.497,114.906 z" fill="#2C2255"/>
        <path d="M214.435,134.953 L214.435,117.984 L217.497,117.984 L217.497,134.953 z M214.435,114.906 L214.435,111.828 L217.497,111.828 L217.497,114.906 z" fill-opacity="0" stroke="#2C2255" stroke-width="1"/>
      </g>
      <g>
        <path d="M223.636,141.125 L223.636,117.984 L226.698,117.984 L226.698,121.172 Q228.579,117.609 232.34,117.609 Q235.386,117.609 237.135,119.844 Q238.883,122.078 238.883,125.953 Q238.883,130.172 236.902,132.758 Q234.92,135.344 231.687,135.344 Q228.688,135.344 226.698,133.031 L226.698,141.125 z M226.698,130.906 Q229.061,133.031 231.205,133.031 Q235.619,133.031 235.619,126.266 Q235.619,120.297 231.703,120.297 Q229.138,120.297 226.698,123.094 z" fill="#2C2255"/>
        <path d="M223.636,141.125 L223.636,117.984 L226.698,117.984 L226.698,121.172 Q228.579,117.609 232.34,117.609 Q235.386,117.609 237.135,119.844 Q238.883,122.078 238.883,125.953 Q238.883,130.172 236.902,132.758 Q234.92,135.344 231.687,135.344 Q228.688,135.344 226.698,133.031 L226.698,141.125 z M226.698,130.906 Q229.061,133.031 231.205,133.031 Q235.619,133.031 235.619,126.266 Q235.619,120.297 231.703,120.297 Q229.138,120.297 226.698,123.094 z" fill-opacity="0" stroke="#2C2255" stroke-width="1"/>
      </g>
      <g>
        <path d="M248.146,135.344 Q246.048,135.344 243.049,134.359 L243.049,131.531 Q246.048,133.031 248.271,133.031 Q249.592,133.031 250.462,132.312 Q251.333,131.594 251.333,130.516 Q251.333,128.938 248.892,127.906 L247.105,127.141 Q243.142,125.484 243.142,122.375 Q243.142,120.156 244.704,118.883 Q246.266,117.609 248.986,117.609 Q250.4,117.609 252.483,118 L253.12,118.125 L253.12,120.688 Q250.555,119.922 249.048,119.922 Q246.095,119.922 246.095,122.078 Q246.095,123.469 248.333,124.422 L249.809,125.047 Q252.312,126.109 253.353,127.289 Q254.394,128.469 254.394,130.234 Q254.394,132.469 252.638,133.906 Q250.882,135.344 248.146,135.344 z" fill="#2C2255"/>
        <path d="M248.146,135.344 Q246.048,135.344 243.049,134.359 L243.049,131.531 Q246.048,133.031 248.271,133.031 Q249.592,133.031 250.462,132.312 Q251.333,131.594 251.333,130.516 Q251.333,128.938 248.892,127.906 L247.105,127.141 Q243.142,125.484 243.142,122.375 Q243.142,120.156 244.704,118.883 Q246.266,117.609 248.986,117.609 Q250.4,117.609 252.483,118 L253.12,118.125 L253.12,120.688 Q250.555,119.922 249.048,119.922 Q246.095,119.922 246.095,122.078 Q246.095,123.469 248.333,124.422 L249.809,125.047 Q252.312,126.109 253.353,127.289 Q254.394,128.469 254.394,130.234 Q254.394,132.469 252.638,133.906 Q250.882,135.344 248.146,135.344 z" fill-opacity="0" stroke="#2C2255" stroke-width="1"/>
      </g>
      <g>
        <path d="M272.268,134.406 Q269.19,135.344 266.999,135.344 Q263.269,135.344 260.914,132.852 Q258.56,130.359 258.56,126.391 Q258.56,122.531 260.635,120.062 Q262.709,117.594 265.942,117.594 Q269.004,117.594 270.675,119.781 Q272.346,121.969 272.346,126 L272.33,126.953 L261.684,126.953 Q262.352,133 267.574,133 Q269.486,133 272.268,131.969 z M261.823,124.641 L269.268,124.641 Q269.268,119.906 265.756,119.906 Q262.228,119.906 261.823,124.641 z" fill="#2C2255"/>
        <path d="M272.268,134.406 Q269.19,135.344 266.999,135.344 Q263.269,135.344 260.914,132.852 Q258.56,130.359 258.56,126.391 Q258.56,122.531 260.635,120.062 Q262.709,117.594 265.942,117.594 Q269.004,117.594 270.675,119.781 Q272.346,121.969 272.346,126 L272.33,126.953 L261.684,126.953 Q262.352,133 267.574,133 Q269.486,133 272.268,131.969 z M261.823,124.641 L269.268,124.641 Q269.268,119.906 265.756,119.906 Q262.228,119.906 261.823,124.641 z" fill-opacity="0" stroke="#2C2255" stroke-width="1"/>
      </g>
      <g>
        <path d="M277.677,134.953 L277.677,131.094 L281.515,131.094 L281.515,134.953 z" fill="#2C2255"/>
        <path d="M277.677,134.953 L277.677,131.094 L281.515,131.094 L281.515,134.953 z" fill-opacity="0" stroke="#2C2255" stroke-width="1"/>
      </g>
      <g>
        <path d="M294.307,135.344 Q290.685,135.344 288.525,132.93 Q286.365,130.516 286.365,126.469 Q286.365,122.375 288.533,119.992 Q290.701,117.609 294.415,117.609 Q298.13,117.609 300.298,119.992 Q302.466,122.375 302.466,126.438 Q302.466,130.594 300.29,132.969 Q298.115,135.344 294.307,135.344 z M294.353,133.031 Q299.218,133.031 299.218,126.438 Q299.218,119.922 294.415,119.922 Q289.628,119.922 289.628,126.469 Q289.628,133.031 294.353,133.031 z" fill="#2C2255"/>
        <path d="M294.307,135.344 Q290.685,135.344 288.525,132.93 Q286.365,130.516 286.365,126.469 Q286.365,122.375 288.533,119.992 Q290.701,117.609 294.415,117.609 Q298.13,117.609 300.298,119.992 Q302.466,122.375 302.466,126.438 Q302.466,130.594 300.29,132.969 Q298.115,135.344 294.307,135.344 z M294.353,133.031 Q299.218,133.031 299.218,126.438 Q299.218,119.922 294.415,119.922 Q289.628,119.922 289.628,126.469 Q289.628,133.031 294.353,133.031 z" fill-opacity="0" stroke="#2C2255" stroke-width="1"/>
      </g>
      <g>
        <path d="M307.253,134.953 L307.253,117.984 L310.315,117.984 L310.315,121.172 Q312.134,117.609 315.6,117.609 Q316.066,117.609 316.579,117.688 L316.579,120.562 Q315.786,120.297 315.18,120.297 Q312.273,120.297 310.315,123.766 L310.315,134.953 z" fill="#2C2255"/>
        <path d="M307.253,134.953 L307.253,117.984 L310.315,117.984 L310.315,121.172 Q312.134,117.609 315.6,117.609 Q316.066,117.609 316.579,117.688 L316.579,120.562 Q315.786,120.297 315.18,120.297 Q312.273,120.297 310.315,123.766 L310.315,134.953 z" fill-opacity="0" stroke="#2C2255" stroke-width="1"/>
      </g>
      <g>
        <path d="M320.34,140.594 L320.697,137.922 Q323.355,139.188 325.935,139.188 Q331.111,139.188 331.111,133.672 L331.111,131 Q329.417,134.562 325.547,134.562 Q322.516,134.562 320.728,132.344 Q318.941,130.125 318.941,126.359 Q318.941,122.484 320.977,120.047 Q323.013,117.609 326.246,117.609 Q329.075,117.609 331.111,119.922 L331.111,117.984 L334.188,117.984 L334.188,130.328 Q334.188,134.312 333.776,136.227 Q333.364,138.141 332.23,139.359 Q330.225,141.5 325.997,141.5 Q323.044,141.5 320.34,140.594 z M331.111,129.078 L331.111,122.031 Q329.09,119.922 326.712,119.922 Q324.598,119.922 323.402,121.625 Q322.205,123.328 322.205,126.297 Q322.205,131.875 326.106,131.875 Q328.764,131.875 331.111,129.078 z" fill="#2C2255"/>
        <path d="M320.34,140.594 L320.697,137.922 Q323.355,139.188 325.935,139.188 Q331.111,139.188 331.111,133.672 L331.111,131 Q329.417,134.562 325.547,134.562 Q322.516,134.562 320.728,132.344 Q318.941,130.125 318.941,126.359 Q318.941,122.484 320.977,120.047 Q323.013,117.609 326.246,117.609 Q329.075,117.609 331.111,119.922 L331.111,117.984 L334.188,117.984 L334.188,130.328 Q334.188,134.312 333.776,136.227 Q333.364,138.141 332.23,139.359 Q330.225,141.5 325.997,141.5 Q323.044,141.5 320.34,140.594 z M331.111,129.078 L331.111,122.031 Q329.09,119.922 326.712,119.922 Q324.598,119.922 323.402,121.625 Q322.205,123.328 322.205,126.297 Q322.205,131.875 326.106,131.875 Q328.764,131.875 331.111,129.078 z" fill-opacity="0" stroke="#2C2255" stroke-width="1"/>
      </g>
    </g>
  </g>
</svg>
